<?xml version="1.0" standalone="no"?>
<!DOCTYPE svg PUBLIC "-//W3C//DTD SVG 20010904//EN"
 "http://www.w3.org/TR/2001/REC-SVG-20010904/DTD/svg10.dtd">
<svg version="1.0" xmlns="http://www.w3.org/2000/svg"
 width="56.000000pt" height="56.000000pt" viewBox="0 0 56.000000 56.000000"
 preserveAspectRatio="xMidYMid meet">

<g transform="translate(0.000000,56.000000) scale(0.100000,-0.100000)"
fill="#000000" stroke="none">
<path d="M183 438 l-103 -61 0 -117 0 -118 99 -56 c54 -31 104 -56 111 -56 7
0 57 25 111 56 l99 56 0 118 0 118 -106 61 c-58 34 -107 61 -107 60 -1 0 -48
-28 -104 -61z m190 -30 c67 -39 70 -42 48 -52 -19 -8 -33 -5 -77 19 l-54 29
-54 -29 c-44 -24 -58 -27 -77 -19 -22 10 -19 13 46 52 39 23 76 41 83 42 8 0
46 -19 85 -42z m-106 -131 c-3 -7 -19 -20 -36 -30 l-31 -18 0 41 c0 35 4 43
33 60 l32 20 3 -31 c2 -17 1 -36 -1 -42z m111 -6 l3 -44 -33 21 c-27 18 -34
28 -36 63 l-3 42 33 -20 c28 -16 33 -25 36 -62z m-231 51 c7 -4 13 -36 15 -72
l3 -65 53 -28 c41 -22 52 -33 52 -53 0 -13 -2 -24 -4 -24 -2 0 -36 18 -75 41
l-71 41 0 84 c0 83 3 91 27 76z m313 -76 l0 -84 -71 -41 c-39 -23 -73 -41 -75
-41 -2 0 -4 10 -4 23 0 17 13 30 53 53 l52 30 3 64 c3 58 12 79 35 80 4 0 7
-38 7 -84z m-134 -28 l36 -21 -36 -19 c-35 -18 -37 -18 -72 0 l-36 19 33 21
c19 12 35 22 36 22 1 0 18 -10 39 -22z"/>
</g>
</svg>
